<svg xmlns="http://www.w3.org/2000/svg" version="1.1" xmlns:xlink="http://www.w3.org/1999/xlink" xmlns:svgjs="http://svgjs.com/svgjs" width="1440" height="800" preserveAspectRatio="none" viewBox="0 0 1440 800"><g mask="url(&quot;#SvgjsMask1029&quot;)" fill="none"><rect width="1440" height="800" x="0" y="0" fill="#0e2a47"></rect><path d="M118.56 148.26 a145.44 145.44 0 1 0 290.88 0 a145.44 145.44 0 1 0 -290.88 0z" fill="rgba(28, 83, 142, 0.4)" class="triangle-float1"></path><path d="M1405.36,360.398C1464.842,359.602,1522.405,337.753,1555.438,288.28C1592.654,232.543,1610.57,160.534,1577.869,102.034C1544.555,42.437,1473.632,19.1,1405.36,19.801C1338.466,20.488,1272.3,47.563,1238.88,105.515C1205.485,163.423,1211.604,236.426,1248.159,292.392C1281.622,343.624,1344.173,361.217,1405.36,360.398" fill="rgba(28, 83, 142, 0.4)" class="triangle-float1"></path><path d="M1045.887,745.011C1115.475,743.357,1179.095,710.888,1217.558,652.872C1261.051,587.269,1289.876,503.772,1251.31,435.156C1212.21,365.59,1125.388,340.524,1045.887,347.439C977.333,353.402,929.392,407.047,894.259,466.215C858.098,527.114,825.635,599.164,859.474,661.383C894.349,725.507,972.914,746.745,1045.887,745.011" fill="rgba(28, 83, 142, 0.4)" class="triangle-float1"></path><path d="M1433.061488472475 379.62569748996583L1281.6679835544646 347.2951841204906 1321.2334188222285 476.70789166752115z" fill="rgba(28, 83, 142, 0.4)" class="triangle-float1"></path><path d="M214.853,351.112C267.007,350.001,305.676,306.595,328.834,259.851C349.266,218.609,346.39,171.244,323.843,131.119C300.776,90.068,261.936,56.294,214.853,57.005C168.72,57.702,134.871,94.594,111.418,134.326C87.449,174.932,71.838,222.335,92.143,264.891C115.216,313.249,161.285,352.253,214.853,351.112" fill="rgba(28, 83, 142, 0.4)" class="triangle-float1"></path><path d="M1286.436,429.552C1356.869,428.815,1432.471,420.042,1471.421,361.354C1514.003,297.194,1513.809,212.193,1474.734,145.838C1436.2,80.401,1362.291,43.633,1286.436,47.222C1216.167,50.547,1162.993,102.066,1126.664,162.308C1088.749,225.179,1056.945,302.281,1094.619,365.297C1131.705,427.328,1214.168,430.308,1286.436,429.552" fill="rgba(28, 83, 142, 0.4)" class="triangle-float2"></path><path d="M1122.5102336695559 487.688913116659L986.6361596618981 575.9265684959125 1074.8738150411516 711.8006425035703 1210.7478890488094 623.5629871243168z" fill="rgba(28, 83, 142, 0.4)" class="triangle-float2"></path><path d="M869.99 426.28 a176.95 176.95 0 1 0 353.9 0 a176.95 176.95 0 1 0 -353.9 0z" fill="rgba(28, 83, 142, 0.4)" class="triangle-float2"></path><path d="M878.1499925939283 61.12333534348049L1008.7529226188433 254.7501417718197 1202.3797290471825 124.1472117469048 1071.7767990222676-69.47959468143439z" fill="rgba(28, 83, 142, 0.4)" class="triangle-float3"></path></g><defs><mask id="SvgjsMask1029"><rect width="1440" height="800" fill="#ffffff"></rect></mask><style>
            @keyframes float1 {
                0%{transform: translate(0, 0)}
                50%{transform: translate(-10px, 0)}
                100%{transform: translate(0, 0)}
            }

            .triangle-float1 {
                animation: float1 5s infinite;
            }

            @keyframes float2 {
                0%{transform: translate(0, 0)}
                50%{transform: translate(-5px, -5px)}
                100%{transform: translate(0, 0)}
            }

            .triangle-float2 {
                animation: float2 4s infinite;
            }

            @keyframes float3 {
                0%{transform: translate(0, 0)}
                50%{transform: translate(0, -10px)}
                100%{transform: translate(0, 0)}
            }

            .triangle-float3 {
                animation: float3 6s infinite;
            }
        </style></defs></svg>