<svg xmlns="http://www.w3.org/2000/svg" version="1.1" xmlns:xlink="http://www.w3.org/1999/xlink" xmlns:svgjs="http://svgjs.com/svgjs" width="1920" height="1080" preserveAspectRatio="none" viewBox="0 0 1920 1080"><g mask="url(&quot;#SvgjsMask1003&quot;)" fill="none"><rect width="1920" height="1080" x="0" y="0" fill="rgba(4, 4, 5, 1)"></rect><path d="M107 1080L1187 0L1635.5 0L555.5 1080z" fill="url(#SvgjsLinearGradient1004)"></path><path d="M673.6 1080L1753.6 0L2344.6 0L1264.6 1080z" fill="url(#SvgjsLinearGradient1004)"></path><path d="M1848 1080L768 0L202.5 0L1282.5 1080z" fill="url(#SvgjsLinearGradient1005)"></path><path d="M1173.4 1080L93.40000000000009 0L-310.0999999999999 0L769.9000000000001 1080z" fill="url(#SvgjsLinearGradient1005)"></path><path d="M1109.4492731117175 1080L1920 269.4492731117176L1920 1080z" fill="url(#SvgjsLinearGradient1004)"></path><path d="M0 1080L810.5507268882824 1080L 0 269.4492731117176z" fill="url(#SvgjsLinearGradient1005)"></path></g><defs><mask id="SvgjsMask1003"><rect width="1920" height="1080" fill="#ffffff"></rect></mask><linearGradient x1="0%" y1="100%" x2="100%" y2="0%" id="SvgjsLinearGradient1004"><stop stop-color="rgba(15, 70, 185, 0.2)" offset="0"></stop><stop stop-opacity="0" stop-color="rgba(15, 70, 185, 0.2)" offset="0.66"></stop></linearGradient><linearGradient x1="100%" y1="100%" x2="0%" y2="0%" id="SvgjsLinearGradient1005"><stop stop-color="rgba(15, 70, 185, 0.2)" offset="0"></stop><stop stop-opacity="0" stop-color="rgba(15, 70, 185, 0.2)" offset="0.66"></stop></linearGradient></defs></svg>